<?xml version="1.0" encoding="utf-8"?>
<!-- Generator: Adobe Illustrator 19.0.0, SVG Export Plug-In . SVG Version: 6.00 Build 0)  -->
<!DOCTYPE svg PUBLIC "-//W3C//DTD SVG 1.1//EN" "http://www.w3.org/Graphics/SVG/1.1/DTD/svg11.dtd">
<svg version="1.1" id="Layer_1" xmlns="http://www.w3.org/2000/svg" xmlns:xlink="http://www.w3.org/1999/xlink" x="0px" y="0px"
	 width="150px" height="40px" viewBox="0 0 150 40" enable-background="new 0 0 150 40" xml:space="preserve">
<g id="XMLID_2_">
	<polygon id="XMLID_66_" fill="#82787C" points="101.1,7 101.1,3.9 87.9,3.9 87.9,28 91.1,32.7 91.1,18.7 100.8,18.7 100.8,15.6 
		91.1,15.6 91.1,7 	"/>
	<path id="XMLID_64_" fill="#82787C" d="M106.5,33.1h-2.6v-23h2.6V33.1z"/>
	<path id="XMLID_62_" fill="#82787C" d="M113.7,30.6h6.3v2.3h-9V10.1h2.6L113.7,30.6L113.7,30.6z"/>
	<path id="XMLID_60_" fill="#82787C" d="M122.5,10.1h11.9v2.3H125v6.8h9v2.3h-9v9h9.4v2.3h-11.9C122.5,32.8,122.5,10.1,122.5,10.1z"
		/>
	<path id="XMLID_68_" fill="#E6E7E8" d="M15.5,33.1h7.6V21.6h8.4v-6.4h-8.4v-4.9h9.2V3.9H15.5V33.1z M77.5,20.8l7.3-10.7h-7.3L74,16
		l-3.5-5.9h-7.3l7.3,10.7l-5.3,7.3H53.8v-4h6.7V19h-6.7v-3.8h7.1V10H47.8v17.4l0.4,0.6h-8.1V10h-6v23h34.5l5.3-7.5l4.8,7.5H86
		L77.5,20.8z"/>
</g>
</svg>
