<?xml version="1.0" encoding="utf-8"?>
<!-- Generator: Adobe Illustrator 19.0.0, SVG Export Plug-In . SVG Version: 6.00 Build 0)  -->
<!DOCTYPE svg PUBLIC "-//W3C//DTD SVG 1.1//EN" "http://www.w3.org/Graphics/SVG/1.1/DTD/svg11.dtd">
<svg version="1.1" id="Layer_1" xmlns="http://www.w3.org/2000/svg" xmlns:xlink="http://www.w3.org/1999/xlink" x="0px" y="0px"
	 width="640px" height="960px" viewBox="0 0 640 960" enable-background="new 0 0 640 960" xml:space="preserve">
<rect id="XMLID_3_" fill="#E6E7E8" width="640" height="960"/>
<rect id="XMLID_8_" x="250" y="321" fill="#1BB0CE" width="140" height="140"/>
<g id="XMLID_1_">
	<polygon id="XMLID_66_" fill="#E6E7E8" points="316.9,347.2 316.9,339.5 284.1,339.5 284.1,399.5 292,411.2 292,376.4 316.2,376.4 
		316.2,368.6 292,368.6 292,347.2 	"/>
	<polygon id="XMLID_2_" fill="#E6E7E8" points="355.9,376.4 355.9,368.6 323.1,368.6 323.1,428.6 331,440.4 331,405.5 355.2,405.5 
		355.2,397.8 331,397.8 331,376.4 	"/>
</g>
<g id="XMLID_4_">
	<polygon id="XMLID_5_" fill="#82787C" points="405.6,513.2 405.6,503.4 363.9,503.4 363.9,579.6 374,594.4 374,550.2 404.7,550.2 
		404.7,540.4 374,540.4 374,513.2 	"/>
	<path id="XMLID_64_" fill="#82787C" d="M422.7,595.7h-8.2V523h8.2V595.7z"/>
	<path id="XMLID_62_" fill="#82787C" d="M445.5,587.8h19.9v7.3h-28.5V523h8.2L445.5,587.8L445.5,587.8z"/>
	<path id="XMLID_60_" fill="#82787C" d="M473.3,523h37.6v7.3h-29.7v21.5h28.5v7.3h-28.5v28.5h29.7v7.3h-37.6
		C473.3,594.8,473.3,523,473.3,523z"/>
	<path id="XMLID_68_" fill="#82787C" d="M135,595.7h24v-36.4h26.6v-20.2H159v-15.5h29.1v-20.2H135V595.7z M331,556.8l23.1-33.8H331
		l-11.1,18.7L308.9,523h-23.1l23.1,33.8l-16.8,23.1h-36v-12.6h21.2v-16.1h-21.2v-12h22.4v-16.4h-41.4v55l1.3,1.9h-25.6v-56.9h-19
		v72.7h109.1l16.8-23.7l15.2,23.7h23.1L331,556.8z"/>
</g>
</svg>
