<?xml version="1.0" encoding="utf-8"?>
<!-- Generator: Adobe Illustrator 19.0.0, SVG Export Plug-In . SVG Version: 6.00 Build 0)  -->
<!DOCTYPE svg PUBLIC "-//W3C//DTD SVG 1.1//EN" "http://www.w3.org/Graphics/SVG/1.1/DTD/svg11.dtd">
<svg version="1.1" id="Layer_1" xmlns="http://www.w3.org/2000/svg" xmlns:xlink="http://www.w3.org/1999/xlink" x="0px" y="0px"
	 width="150px" height="41px" viewBox="0 0 150 41" enable-background="new 0 0 150 41" xml:space="preserve">
<g id="XMLID_106_">
	<polygon id="XMLID_66_" fill="#82787C" points="112.2,5 112.2,2 99.2,2 99.2,25.7 102.4,30.3 102.4,16.5 111.9,16.5 111.9,13.5 
		102.4,13.5 102.4,5 	"/>
	<path id="XMLID_64_" fill="#82787C" d="M117.5,30.7H115V8.1h2.5V30.7z"/>
	<path id="XMLID_62_" fill="#82787C" d="M124.6,28.3h6.2v2.3h-8.8V8.1h2.5V28.3z"/>
	<path id="XMLID_60_" fill="#82787C" d="M133.3,8.1H145v2.3h-9.2v6.7h8.9v2.3h-8.9v8.9h9.2v2.3h-11.7V8.1z"/>
	<path id="XMLID_68_" fill="#E6E7E8" d="M28.1,30.7h7.5V19.4h8.2v-6.3h-8.2V8.3h9V2H28.1V30.7z M89,18.6l7.2-10.5H89l-3.4,5.8
		l-3.4-5.8h-7.2l7.2,10.5l-5.2,7.1H65.8v-3.9h6.6v-5h-6.6v-3.8h7v-5H59.9v17.1l0.4,0.6h-8V8.1h-5.9v22.6h33.9l5.2-7.4l4.7,7.4h7.1
		L89,18.6z"/>
	<rect id="XMLID_45_" x="5" y="2" fill="#655A5F" width="20.2" height="28.7"/>
	<path id="XMLID_57_" fill="#262225" d="M13.3,6.6h-2.9C9.6,6.6,9,7.2,9,8v18.3l1.4-6.5v-1.9c1.4-2.2,2.7-4.7,4.2-5.8V8
		C14.7,7.2,14,6.6,13.3,6.6z M20.1,6.6h-2.9c-0.8,0-1.4,0.6-1.4,1.4v18.3l1.4-6.5l0.1-2c1.3-2.2,2.6-4.6,4.2-5.7V8
		C21.5,7.2,20.8,6.6,20.1,6.6z"/>
</g>
</svg>
