<?xml version="1.0" encoding="utf-8"?>
<!-- Generator: Adobe Illustrator 19.0.0, SVG Export Plug-In . SVG Version: 6.00 Build 0)  -->
<!DOCTYPE svg PUBLIC "-//W3C//DTD SVG 1.1//EN" "http://www.w3.org/Graphics/SVG/1.1/DTD/svg11.dtd">
<svg version="1.1" id="Layer_1" xmlns="http://www.w3.org/2000/svg" xmlns:xlink="http://www.w3.org/1999/xlink" x="0px" y="0px"
	 width="150px" height="40px" viewBox="0 0 150 40" style="enable-background:new 0 0 150 40;" xml:space="preserve">
<style type="text/css">
	.st0{fill:#82787C;}
	.st1{fill:#E6E7E8;}
</style>
<g id="XMLID_2_">
	<polygon id="XMLID_66_" class="st0" points="101.1,9 101.1,5.9 87.9,5.9 87.9,30 91.1,34.7 91.1,20.7 100.8,20.7 100.8,17.6 
		91.1,17.6 91.1,9 	"/>
	<path id="XMLID_64_" class="st0" d="M106.5,35.1h-2.6v-23h2.6V35.1z"/>
	<path id="XMLID_62_" class="st0" d="M113.7,32.6h6.3v2.3h-9V12.1h2.6L113.7,32.6L113.7,32.6z"/>
	<path id="XMLID_60_" class="st0" d="M122.5,12.1h11.9v2.3H125v6.8h9v2.3h-9v9h9.4v2.3h-11.9C122.5,34.8,122.5,12.1,122.5,12.1z"/>
	<path id="XMLID_68_" class="st1" d="M15.5,35.1h7.6V23.6h8.4v-6.4h-8.4v-4.9h9.2V5.9H15.5V35.1z M77.5,22.8l7.3-10.7h-7.3L74,18
		l-3.5-5.9h-7.3l7.3,10.7l-5.3,7.3H53.8v-4h6.7V21h-6.7v-3.8h7.1V12H47.8v17.4l0.4,0.6h-8.1V12h-6v23h34.5l5.3-7.5l4.8,7.5H86
		L77.5,22.8z"/>
</g>
</svg>
