<?xml version="1.0" encoding="utf-8"?>
<!-- Generator: Adobe Illustrator 19.0.0, SVG Export Plug-In . SVG Version: 6.00 Build 0)  -->
<!DOCTYPE svg PUBLIC "-//W3C//DTD SVG 1.1//EN" "http://www.w3.org/Graphics/SVG/1.1/DTD/svg11.dtd">
<svg version="1.1" id="Layer_1" xmlns="http://www.w3.org/2000/svg" xmlns:xlink="http://www.w3.org/1999/xlink" x="0px" y="0px"
	 width="150px" height="41px" viewBox="0 0 150 41" enable-background="new 0 0 150 41" xml:space="preserve">
<g id="XMLID_106_">
	<polygon id="XMLID_66_" fill="#82787C" points="113.2,10 113.2,7 100.2,7 100.2,30.7 103.4,35.3 103.4,21.5 112.9,21.5 112.9,18.5 
		103.4,18.5 103.4,10 	"/>
	<path id="XMLID_64_" fill="#82787C" d="M118.5,35.7H116V13.1h2.5V35.7z"/>
	<path id="XMLID_62_" fill="#82787C" d="M125.6,33.3h6.2v2.3H123V13.1h2.5L125.6,33.3L125.6,33.3z"/>
	<path id="XMLID_60_" fill="#82787C" d="M134.3,13.1H146v2.3h-9.2v6.7h8.9v2.3h-8.9v8.9h9.2v2.3h-11.7V13.1z"/>
	<path id="XMLID_68_" fill="#E6E7E8" d="M29.1,35.7h7.5V24.4h8.2v-6.3h-8.2v-4.8h9V7H29.1V35.7z M90,23.6l7.2-10.5H90l-3.4,5.8
		l-3.4-5.8H76l7.2,10.5L78,30.7H66.8v-3.9h6.6v-5h-6.6V18h7v-5H60.9v17.1l0.4,0.6h-8V13.1h-5.9v22.6h33.9l5.2-7.4l4.7,7.4h7.1
		L90,23.6z"/>
	<rect id="XMLID_45_" x="6" y="7" fill="#655A5F" width="20.2" height="28.7"/>
	<path id="XMLID_57_" fill="#262225" d="M14.3,11.6h-2.9c-0.8,0-1.4,0.6-1.4,1.4v18.3l1.4-6.5v-1.9c1.4-2.2,2.7-4.7,4.2-5.8V13
		C15.7,12.2,15,11.6,14.3,11.6z M21.1,11.6h-2.9c-0.8,0-1.4,0.6-1.4,1.4v18.3l1.4-6.5l0.1-2c1.3-2.2,2.6-4.6,4.2-5.7V13
		C22.5,12.2,21.8,11.6,21.1,11.6z"/>
</g>
</svg>
