<?xml version="1.0" encoding="utf-8"?>
<!-- Generator: Adobe Illustrator 18.1.1, SVG Export Plug-In . SVG Version: 6.00 Build 0)  -->
<!DOCTYPE svg PUBLIC "-//W3C//DTD SVG 1.1//EN" "http://www.w3.org/Graphics/SVG/1.1/DTD/svg11.dtd">
<svg version="1.1" id="Layer_1" xmlns="http://www.w3.org/2000/svg" xmlns:xlink="http://www.w3.org/1999/xlink" x="0px" y="0px"
	 width="24px" height="24px" viewBox="0 0 24 24" enable-background="new 0 0 24 24" xml:space="preserve">
<g>
	<path d="M18.8,5.3h-0.9v1.9h-3.1V5.3H9.2v1.9H6.1V5.3H5.2c-1.1,0-1.9,0.9-1.9,1.9v11.6c0,1.1,0.9,1.9,1.9,1.9h13.5
		c1.1,0,1.9-0.9,1.9-1.9V7.2C20.8,6.1,19.9,5.3,18.8,5.3z M18.8,18.7H5.3V11h13.5V18.7z M8.4,3.3H7.1v3.3h1.3V3.3z M17.1,3.3h-1.3
		v3.3h1.3V3.3z"/>
</g>
</svg>
