<?xml version="1.0" encoding="utf-8"?>
<!-- Generator: Adobe Illustrator 18.1.1, SVG Export Plug-In . SVG Version: 6.00 Build 0)  -->
<!DOCTYPE svg PUBLIC "-//W3C//DTD SVG 1.1//EN" "http://www.w3.org/Graphics/SVG/1.1/DTD/svg11.dtd">
<svg version="1.1" id="Layer_1" align="center" xmlns="http://www.w3.org/2000/svg" xmlns:xlink="http://www.w3.org/1999/xlink" x="0px" y="0px"
	 width="24px" height="24px" viewBox="0 0 24 24" enable-background="new 0 0 24 24" xml:space="preserve">
<g>
	<path d="M14.2,3.2c1.2,0,1.8,0.8,1.8,1.7c0,1.2-1,2.2-2.4,2.2c-1.1,0-1.8-0.7-1.7-1.8C11.8,4.4,12.6,3.2,14.2,3.2z M10.5,20.8
		c-0.9,0-1.6-0.6-1-3.1l1.1-4.5c0.2-0.7,0.2-1,0-1c-0.3,0-1.5,0.5-2.2,1l-0.5-0.8c2.3-1.9,4.9-3.1,6-3.1c0.9,0,1.1,1.1,0.6,2.9
		L13.3,17c-0.2,0.8-0.1,1.1,0.1,1.1c0.3,0,1.2-0.3,2.1-1.1l0.5,0.7C13.9,20,11.4,20.8,10.5,20.8z"/>
</g>
</svg>
