<?xml version="1.0" encoding="utf-8"?>
<!-- Generator: Adobe Illustrator 19.2.1, SVG Export Plug-In . SVG Version: 6.00 Build 0)  -->
<svg version="1.1" id="Layer_1" xmlns="http://www.w3.org/2000/svg" xmlns:xlink="http://www.w3.org/1999/xlink" x="0px" y="0px"
	 viewBox="0 0 512 512" style="enable-background:new 0 0 512 512;" xml:space="preserve">
<style type="text/css">
	.st0{fill:url(#SVGID_1_);}
	.st1{fill:#FFFFFF;}
	.st2{fill:none;stroke:#FFFFFF;stroke-width:42.8573;stroke-miterlimit:10;}
</style>
<radialGradient id="SVGID_1_" cx="166.3495" cy="468.6041" r="431.6825" gradientUnits="userSpaceOnUse">
	<stop  offset="0" style="stop-color:#FFD776"/>
	<stop  offset="0.2463" style="stop-color:#F3A554"/>
	<stop  offset="0.3793" style="stop-color:#F15C3C"/>
	<stop  offset="0.5394" style="stop-color:#D94867"/>
	<stop  offset="0.6995" style="stop-color:#C32F87"/>
	<stop  offset="0.9122" style="stop-color:#7D63A7"/>
	<stop  offset="0.9852" style="stop-color:#5C6CB3"/>
</radialGradient>
<path class="st0" d="M470.1,376c0,51.7-41.7,93.6-93.2,93.6H135.1c-51.5,0-93.2-41.9-93.2-93.6V136c0-51.7,41.7-93.6,93.2-93.6
	h241.9c51.5,0,93.2,41.9,93.2,93.6V376z"/>
<path class="st1" d="M320.2,422H191.8c-53.5,0-97.1-43.6-97.1-97.1V188c0-53.5,43.6-97.1,97.1-97.1h128.4
	c53.5,0,97.1,43.6,97.1,97.1v137C417.3,378.5,373.7,422,320.2,422z M191.8,125.9c-34.2,0-62,27.8-62,62v137c0,34.2,27.8,62,62,62
	h128.4c34.2,0,62-27.8,62-62V188c0-34.2-27.8-62-62-62H191.8z"/>
<path class="st2" d="M326.6,256c-0.9,39-31.6,70.6-70.6,70.6S185.4,295,185.4,256s31.6-71.7,70.6-70.6
	C303.5,186.8,327.4,217.2,326.6,256z"/>
<circle class="st1" cx="342.9" cy="168.7" r="19.8"/>
</svg>
