<?xml version="1.0" encoding="utf-8"?>
<!-- Generator: Adobe Illustrator 19.0.0, SVG Export Plug-In . SVG Version: 6.00 Build 0)  -->
<!DOCTYPE svg PUBLIC "-//W3C//DTD SVG 1.1//EN" "http://www.w3.org/Graphics/SVG/1.1/DTD/svg11.dtd">
<svg version="1.1" id="Layer_1" xmlns="http://www.w3.org/2000/svg" xmlns:xlink="http://www.w3.org/1999/xlink" x="0px" y="0px"
	 width="200px" height="41px" viewBox="0 0 200 41" enable-background="new 0 0 200 41" xml:space="preserve">
<g id="XMLID_52_">
	<g id="XMLID_49_">
		<polygon id="XMLID_66_" fill="#82787C" points="153.2,4.2 153.2,0 134.6,0 134.6,33.8 139.1,40.4 139.1,20.6 152.8,20.6 
			152.8,16.4 139.1,16.4 139.1,4.2 		"/>
		<path id="XMLID_64_" fill="#82787C" d="M160.7,41h-3.6V8.7h3.6V41z"/>
		<path id="XMLID_62_" fill="#82787C" d="M170.8,37.6h8.9V41h-12.5V8.7h3.6V37.6z"/>
		<path id="XMLID_60_" fill="#82787C" d="M183.3,8.7H200V12h-13.1v9.6h12.8V25h-12.8v12.7H200V41h-16.7V8.7z"/>
		<path id="XMLID_68_" fill="#E6E7E8" d="M33,41h10.7V24.9h11.7v-9H43.7V9h12.9V0H33V41z M120,23.7l10.3-15H120l-4.9,8.3l-4.9-8.3
			H99.8l10.3,15l-7.4,10.1H86.8v-5.6h9.5v-7.1h-9.5v-5.4h10V8.7H78.4v24.4l0.6,0.8H67.6V8.7h-8.4V41h48.5l7.4-10.5l6.8,10.5H132
			L120,23.7z"/>
	</g>
	<g id="XMLID_58_">
		<rect id="XMLID_45_" x="0" fill="#655A5F" width="28.8" height="41"/>
		<g id="XMLID_79_">
			<path id="XMLID_74_" fill="#262225" d="M15.5,25.7V8.5c0-1.1,0.9-2,2-2h4.1c1.1,0,2,0.9,2,2v6C20.6,16.5,18.2,22.4,15.5,25.7z"/>
			<polygon id="XMLID_55_" fill="#262225" points="15.5,34.7 17.5,25.5 17.7,18.4 15.5,18.4 			"/>
		</g>
		<g id="XMLID_47_">
			<path id="XMLID_51_" fill="#262225" d="M5.7,25.7V8.5c0-1.1,0.9-2,2-2h4.1c1.1,0,2,0.9,2,2v6C10.8,16.5,8.5,22.4,5.7,25.7z"/>
			<polygon id="XMLID_50_" fill="#262225" points="5.7,34.7 7.8,25.5 7.8,18.2 5.7,18.4 			"/>
		</g>
	</g>
</g>
</svg>
